<svg width="327" height="344" viewBox="0 0 327 344" fill="none" xmlns="http://www.w3.org/2000/svg">
<rect width="327" height="344" fill="#2D2641"/>
<mask id="mask0_0_105" style="mask-type:luminance" maskUnits="userSpaceOnUse" x="0" y="0" width="327" height="344">
<rect width="327" height="344" fill="white"/>
</mask>
<g mask="url(#mask0_0_105)">
<path fill-rule="evenodd" clip-rule="evenodd" d="M380.233 -90.3335C329.511 -106.215 277.357 -132.703 223.962 -84.3216C170.567 -35.9405 136.998 6.44112 158.676 61.2775C180.354 116.114 268.841 81.9585 294.551 130.969C320.261 179.98 263.77 224.461 288.125 268.08C312.479 311.7 331.206 339.656 409.475 311.921C487.743 284.187 480.526 213.618 540.046 172.293C599.565 130.969 663.961 69.105 575.587 -41.2832C487.214 -151.671 430.955 -74.4526 380.233 -90.3335Z" stroke="#9E96C6"/>
<path fill-rule="evenodd" clip-rule="evenodd" d="M386.714 -64.4178C345.442 -77.3051 303.003 -98.8001 259.556 -59.5391C216.108 -20.2781 188.793 14.1143 206.432 58.6137C224.072 103.113 296.074 75.3962 316.995 115.168C337.915 154.94 291.948 191.036 311.765 226.433C331.583 261.83 346.821 284.516 410.508 262.01C474.195 239.503 468.323 182.237 516.754 148.702C565.185 115.168 617.585 64.9656 545.675 -24.6137C473.765 -114.193 427.987 -51.5305 386.714 -64.4178Z" stroke="#9E96C6"/>
<path fill-rule="evenodd" clip-rule="evenodd" d="M398.526 -47.6553C365.074 -58.1696 330.676 -75.7066 295.461 -43.675C260.245 -11.6433 238.106 16.4162 252.403 52.7217C266.7 89.0272 325.06 66.4139 342.017 98.8624C358.973 131.311 321.716 160.76 337.778 189.639C353.841 218.518 366.192 237.027 417.812 218.665C469.432 200.303 464.673 153.581 503.927 126.222C543.182 98.8624 585.653 57.904 527.368 -15.1806C469.083 -88.2652 431.979 -37.141 398.526 -47.6553Z" stroke="#9E96C6"/>
<path fill-rule="evenodd" clip-rule="evenodd" d="M410.692 -27.4944C383.647 -35.9277 355.839 -49.9938 327.369 -24.3018C298.9 1.39024 281.001 23.8963 292.56 53.0164C304.118 82.1364 351.298 63.9986 365.007 90.025C378.715 116.051 348.595 139.672 361.58 162.836C374.566 185.999 384.551 200.845 426.283 186.117C468.015 171.389 464.167 133.914 495.902 111.97C527.637 90.025 561.973 57.173 514.853 -1.44695C467.733 -60.0669 437.736 -19.061 410.692 -27.4944Z" stroke="#9E96C6"/>
<path fill-rule="evenodd" clip-rule="evenodd" d="M413.21 -13.5863C391.162 -20.4863 368.491 -31.995 345.281 -10.9742C322.071 10.0466 307.479 28.4606 316.902 52.2861C326.325 76.1116 364.789 61.2716 375.965 82.5659C387.141 103.86 362.585 123.187 373.172 142.138C383.759 161.09 391.899 173.237 425.921 161.186C459.944 149.136 456.807 118.475 482.679 100.521C508.552 82.5659 536.544 55.687 498.129 7.72522C459.714 -40.2365 435.259 -6.68628 413.21 -13.5863Z" stroke="#9E96C6"/>
</g>
</svg>
