<svg width="375" height="587" viewBox="0 0 375 587" fill="none" xmlns="http://www.w3.org/2000/svg">
<rect width="375" height="587" fill="#2C2830"/>
<mask id="mask0_0_20" style="mask-type:luminance" maskUnits="userSpaceOnUse" x="0" y="0" width="375" height="587">
<rect width="375" height="587" fill="white"/>
</mask>
<g mask="url(#mask0_0_20)">
<path fill-rule="evenodd" clip-rule="evenodd" d="M309.564 410.343C213.876 380.406 115.487 330.474 14.7569 421.675C-85.9731 512.877 -149.301 592.768 -108.406 696.138C-67.5102 799.508 99.4214 735.123 147.924 827.511C196.427 919.899 89.8554 1003.75 135.801 1085.97C181.746 1168.2 217.075 1220.9 364.728 1168.62C512.382 1116.33 498.768 983.308 611.052 905.409C723.335 827.511 844.819 710.893 678.102 502.805C511.384 294.717 405.251 440.279 309.564 410.343Z" stroke="#96A9C6"/>
<path fill-rule="evenodd" clip-rule="evenodd" d="M321.902 459.672C243.919 435.358 163.733 394.803 81.6395 468.877C-0.453674 542.95 -52.065 607.837 -18.7359 691.794C14.5932 775.75 150.64 723.457 190.169 798.494C229.697 873.531 142.844 941.634 180.288 1008.42C217.733 1075.2 246.525 1118 366.86 1075.54C487.195 1033.08 476.1 925.032 567.61 861.763C659.119 798.494 758.126 703.778 622.254 534.77C486.382 365.762 399.885 483.986 321.902 459.672Z" stroke="#96A9C6"/>
<path fill-rule="evenodd" clip-rule="evenodd" d="M344.947 491.546C281.844 471.722 216.958 438.657 150.529 499.05C84.0995 559.443 42.336 612.347 69.3056 680.798C96.2753 749.249 206.363 706.614 238.35 767.793C270.336 828.971 200.054 884.496 230.354 938.945C260.654 993.394 283.953 1028.29 381.327 993.67C478.701 959.05 469.723 870.961 543.772 819.377C617.82 767.793 697.936 690.569 587.99 552.774C478.043 414.979 408.051 511.37 344.947 491.546Z" stroke="#96A9C6"/>
<path fill-rule="evenodd" clip-rule="evenodd" d="M368.21 531.166C317.271 515.285 264.894 488.797 211.27 537.178C157.647 585.56 123.934 627.941 145.705 682.778C167.475 737.614 256.341 703.458 282.162 752.469C307.982 801.48 251.249 845.961 275.708 889.58C300.167 933.2 318.974 961.156 397.577 933.421C476.181 905.687 468.933 835.118 528.707 793.793C588.482 752.469 653.153 690.605 564.401 580.217C475.649 469.829 419.149 547.047 368.21 531.166Z" stroke="#96A9C6"/>
<path fill-rule="evenodd" clip-rule="evenodd" d="M373.18 556.232C331.582 543.235 288.809 521.557 245.018 561.152C201.227 600.746 173.697 635.431 191.475 680.309C209.254 725.186 281.825 697.234 302.91 737.344C323.996 777.454 277.666 813.857 297.64 849.554C317.614 885.252 332.972 908.131 397.162 885.433C461.352 862.735 455.434 804.982 504.247 771.163C553.061 737.344 605.874 686.715 533.396 596.374C460.918 506.033 414.779 569.228 373.18 556.232Z" stroke="#96A9C6"/>
<path fill-rule="evenodd" clip-rule="evenodd" d="M384.992 574.895C351.214 564.344 316.482 546.746 280.923 578.889C245.365 611.032 223.009 639.188 237.446 675.62C251.882 712.052 310.811 689.36 327.932 721.921C345.054 754.482 307.434 784.034 323.653 813.013C339.872 841.992 352.343 860.565 404.466 842.14C456.589 823.714 451.783 776.83 491.42 749.375C531.057 721.921 573.942 680.82 515.089 607.482C456.237 534.144 418.771 585.445 384.992 574.895Z" stroke="#96A9C6"/>
</g>
</svg>
